<svg width="1323" height="489" viewBox="0 0 1323 489" fill="none" xmlns="http://www.w3.org/2000/svg">
<g filter="url(#filter0_i_636_1572)">
<rect y="0.728516" width="1322.09" height="487.737" rx="41.2637" fill="#2F3234"/>
<g filter="url(#filter1_d_636_1572)">
<rect x="55.3257" y="53.4702" width="1218.93" height="386.228" rx="6.60219" fill="#0C0C0C"/>
</g>
<g filter="url(#filter2_d_636_1572)">
<rect x="66.0542" y="64.1997" width="1197.47" height="366.422" fill="#006771"/>
</g>
<path d="M926.783 31.4671C926.783 27.2525 930.199 23.8359 934.414 23.8359H934.734C939.003 23.8359 942.463 27.2963 942.463 31.5648C942.463 35.7255 939.09 39.0984 934.929 39.0984H934.414C930.199 39.0984 926.783 35.6817 926.783 31.4671Z" fill="#DC9036"/>
<rect x="926.783" y="0.728516" width="15.6802" height="31.3604" fill="#DC9036"/>
<rect x="928.434" y="25.7881" width="12.3553" height="12.3553" rx="6.17764" fill="#E4B67F"/>
<path d="M972.998 32.2919C972.998 28.0773 976.415 24.6606 980.629 24.6606H980.949C985.218 24.6606 988.678 28.121 988.678 32.3895C988.678 36.5502 985.305 39.9231 981.145 39.9231H980.629C976.415 39.9231 972.998 36.5065 972.998 32.2919Z" fill="#DC9036"/>
<rect x="972.998" y="1.55273" width="15.6802" height="31.3604" fill="#DC9036"/>
<rect x="974.648" y="26.6123" width="12.3553" height="12.3553" rx="6.17764" fill="#E4B67F"/>
<path d="M1019.21 32.2919C1019.21 28.0773 1022.63 24.6606 1026.85 24.6606H1027.17C1031.43 24.6606 1034.89 28.121 1034.89 32.3895C1034.89 36.5502 1031.52 39.9231 1027.36 39.9231H1026.85C1022.63 39.9231 1019.21 36.5065 1019.21 32.2919Z" fill="#DC9036"/>
<rect x="1019.21" y="1.55273" width="15.6802" height="31.3604" fill="#DC9036"/>
<rect x="1020.87" y="26.6123" width="12.3553" height="12.3553" rx="6.17764" fill="#E4B67F"/>
<path d="M1065.43 32.2919C1065.43 28.0773 1068.85 24.6606 1073.06 24.6606H1073.38C1077.65 24.6606 1081.11 28.121 1081.11 32.3895C1081.11 36.5502 1077.74 39.9231 1073.58 39.9231H1073.06C1068.85 39.9231 1065.43 36.5065 1065.43 32.2919Z" fill="#DC9036"/>
<rect x="1065.43" y="1.55273" width="15.6802" height="31.3604" fill="#DC9036"/>
<rect x="1067.08" y="26.6123" width="12.3553" height="12.3553" rx="6.17764" fill="#E4B67F"/>
<path d="M738.619 458.131C738.619 462.346 735.202 465.762 730.987 465.762H730.667C726.399 465.762 722.938 462.302 722.938 458.033C722.938 453.873 726.311 450.5 730.472 450.5H730.987C735.202 450.5 738.619 453.916 738.619 458.131Z" fill="#DC9036"/>
<rect x="738.619" y="488.87" width="15.6802" height="31.3604" transform="rotate(-180 738.619 488.87)" fill="#DC9036"/>
<rect x="736.968" y="463.811" width="12.3553" height="12.3553" rx="6.17764" transform="rotate(-180 736.968 463.811)" fill="#E4B67F"/>
<path d="M692.404 457.309C692.404 461.523 688.987 464.94 684.773 464.94H684.452C680.184 464.94 676.724 461.48 676.724 457.211C676.724 453.05 680.096 449.678 684.257 449.678H684.773C688.987 449.678 692.404 453.094 692.404 457.309Z" fill="#DC9036"/>
<rect x="692.404" y="488.048" width="15.6802" height="31.3604" transform="rotate(-180 692.404 488.048)" fill="#DC9036"/>
<rect x="690.753" y="462.988" width="12.3553" height="12.3553" rx="6.17764" transform="rotate(-180 690.753 462.988)" fill="#E4B67F"/>
<path d="M646.188 457.309C646.188 461.523 642.771 464.94 638.557 464.94H638.237C633.968 464.94 630.508 461.48 630.508 457.211C630.508 453.05 633.881 449.678 638.041 449.678H638.557C642.771 449.678 646.188 453.094 646.188 457.309Z" fill="#DC9036"/>
<rect x="646.188" y="488.048" width="15.6802" height="31.3604" transform="rotate(-180 646.188 488.048)" fill="#DC9036"/>
<rect x="644.538" y="462.988" width="12.3553" height="12.3553" rx="6.17764" transform="rotate(-180 644.538 462.988)" fill="#E4B67F"/>
<path d="M599.973 457.309C599.973 461.523 596.557 464.94 592.342 464.94H592.022C587.753 464.94 584.293 461.48 584.293 457.211C584.293 453.05 587.666 449.678 591.826 449.678H592.342C596.557 449.678 599.973 453.094 599.973 457.309Z" fill="#DC9036"/>
<rect x="599.973" y="488.048" width="15.6802" height="31.3604" transform="rotate(-180 599.973 488.048)" fill="#DC9036"/>
<rect x="598.323" y="462.988" width="12.3553" height="12.3553" rx="6.17764" transform="rotate(-180 598.323 462.988)" fill="#E4B67F"/>
<rect x="12.3789" y="14.7573" width="43.2866" height="43.2866" rx="21.6433" fill="black"/>
<rect x="1269.27" y="14.7573" width="43.2866" height="43.2866" rx="21.6433" fill="black"/>
<rect x="12.3789" y="434.823" width="43.2866" height="43.2866" rx="21.6433" fill="black"/>
<rect x="1269.27" y="434.823" width="43.2866" height="43.2866" rx="21.6433" fill="black"/>
<rect x="17.0015" y="19.8491" width="33.5122" height="33.5122" rx="16.7561" fill="#111110"/>
<rect x="1273.89" y="19.8491" width="33.5122" height="33.5122" rx="16.7561" fill="#111110"/>
<rect x="17.0015" y="439.915" width="33.5122" height="33.5122" rx="16.7561" fill="#111110"/>
<rect x="1273.89" y="439.915" width="33.5122" height="33.5122" rx="16.7561" fill="#111110"/>
</g>
<defs>
<filter id="filter0_i_636_1572" x="0" y="0.728516" width="1322.09" height="488.142" filterUnits="userSpaceOnUse" color-interpolation-filters="sRGB">
<feFlood flood-opacity="0" result="BackgroundImageFix"/>
<feBlend mode="normal" in="SourceGraphic" in2="BackgroundImageFix" result="shape"/>
<feColorMatrix in="SourceAlpha" type="matrix" values="0 0 0 0 0 0 0 0 0 0 0 0 0 0 0 0 0 0 127 0" result="hardAlpha"/>
<feOffset/>
<feGaussianBlur stdDeviation="4.12637"/>
<feComposite in2="hardAlpha" operator="arithmetic" k2="-1" k3="1"/>
<feColorMatrix type="matrix" values="0 0 0 0 0 0 0 0 0 0.9 0 0 0 0 1 0 0 0 0.3 0"/>
<feBlend mode="normal" in2="shape" result="effect1_innerShadow_636_1572"/>
</filter>
<filter id="filter1_d_636_1572" x="52.0246" y="53.4702" width="1225.53" height="396.131" filterUnits="userSpaceOnUse" color-interpolation-filters="sRGB">
<feFlood flood-opacity="0" result="BackgroundImageFix"/>
<feColorMatrix in="SourceAlpha" type="matrix" values="0 0 0 0 0 0 0 0 0 0 0 0 0 0 0 0 0 0 127 0" result="hardAlpha"/>
<feOffset dy="6.60219"/>
<feGaussianBlur stdDeviation="1.65055"/>
<feComposite in2="hardAlpha" operator="out"/>
<feColorMatrix type="matrix" values="0 0 0 0 0 0 0 0 0 0 0 0 0 0 0 0 0 0 0.25 0"/>
<feBlend mode="normal" in2="BackgroundImageFix" result="effect1_dropShadow_636_1572"/>
<feBlend mode="normal" in="SourceGraphic" in2="effect1_dropShadow_636_1572" result="shape"/>
</filter>
<filter id="filter2_d_636_1572" x="49.5487" y="47.6942" width="1230.48" height="399.432" filterUnits="userSpaceOnUse" color-interpolation-filters="sRGB">
<feFlood flood-opacity="0" result="BackgroundImageFix"/>
<feColorMatrix in="SourceAlpha" type="matrix" values="0 0 0 0 0 0 0 0 0 0 0 0 0 0 0 0 0 0 127 0" result="hardAlpha"/>
<feOffset/>
<feGaussianBlur stdDeviation="8.25274"/>
<feComposite in2="hardAlpha" operator="out"/>
<feColorMatrix type="matrix" values="0 0 0 0 0.0588235 0 0 0 0 0.639216 0 0 0 0 0.694118 0 0 0 1 0"/>
<feBlend mode="normal" in2="BackgroundImageFix" result="effect1_dropShadow_636_1572"/>
<feBlend mode="normal" in="SourceGraphic" in2="effect1_dropShadow_636_1572" result="shape"/>
</filter>
</defs>
</svg>
