<svg width="1274" height="609" viewBox="0 0 1274 609" fill="none" xmlns="http://www.w3.org/2000/svg">
<g filter="url(#filter0_i_636_1619)">
<rect x="0.0585938" y="0.935547" width="1273.4" height="607.402" rx="41.2637" fill="#2F3234"/>
<g filter="url(#filter1_d_636_1619)">
<rect x="57.8276" y="57.0542" width="1157.86" height="500.116" rx="6.60219" fill="#0C0C0C"/>
</g>
<g filter="url(#filter2_d_636_1619)">
<rect x="67.731" y="64.481" width="1138.05" height="482.785" rx="6.60219" fill="#006771"/>
</g>
<rect x="14.9136" y="15.7905" width="43.2866" height="43.2866" rx="21.6433" fill="black"/>
<rect x="1218.16" y="15.7905" width="43.2866" height="43.2866" rx="21.6433" fill="black"/>
<rect x="14.9136" y="552.219" width="43.2866" height="43.2866" rx="21.6433" fill="black"/>
<rect x="1218.16" y="552.219" width="43.2866" height="43.2866" rx="21.6433" fill="black"/>
<rect x="19.5366" y="20.8823" width="33.5122" height="33.5122" rx="16.7561" fill="#111110"/>
<rect x="1222.79" y="20.8823" width="33.5122" height="33.5122" rx="16.7561" fill="#111110"/>
<rect x="19.5366" y="557.311" width="33.5122" height="33.5122" rx="16.7561" fill="#111110"/>
<rect x="1222.79" y="557.311" width="33.5122" height="33.5122" rx="16.7561" fill="#111110"/>
<path d="M159.336 30.8504C159.336 26.6358 162.753 23.2192 166.967 23.2192H167.287C171.556 23.2192 175.016 26.6796 175.016 30.9481C175.016 35.1088 171.643 38.4817 167.483 38.4817H166.967C162.753 38.4817 159.336 35.065 159.336 30.8504Z" fill="#DC9036"/>
<rect x="159.336" y="0.111328" width="15.6802" height="31.3604" fill="#DC9036"/>
<rect x="160.986" y="25.1709" width="12.3553" height="12.3553" rx="6.17764" fill="#283D4D"/>
<path d="M205.552 31.6747C205.552 27.4601 208.968 24.0435 213.183 24.0435H213.503C217.772 24.0435 221.232 27.5038 221.232 31.7723C221.232 35.933 217.859 39.3059 213.698 39.3059H213.183C208.968 39.3059 205.552 35.8893 205.552 31.6747Z" fill="#DC9036"/>
<rect x="205.552" y="0.935547" width="15.6802" height="31.3604" fill="#DC9036"/>
<rect x="207.202" y="25.9951" width="12.3553" height="12.3553" rx="6.17764" fill="#283D4D"/>
<path d="M251.767 31.6747C251.767 27.4601 255.183 24.0435 259.398 24.0435H259.718C263.986 24.0435 267.447 27.5038 267.447 31.7723C267.447 35.933 264.074 39.3059 259.913 39.3059H259.398C255.183 39.3059 251.767 35.8893 251.767 31.6747Z" fill="#DC9036"/>
<rect x="251.767" y="0.935547" width="15.6802" height="31.3604" fill="#DC9036"/>
<rect x="253.417" y="25.9951" width="12.3553" height="12.3553" rx="6.17764" fill="#283D4D"/>
<path d="M297.982 31.6747C297.982 27.4601 301.399 24.0435 305.614 24.0435H305.934C310.202 24.0435 313.663 27.5038 313.663 31.7723C313.663 35.933 310.29 39.3059 306.129 39.3059H305.614C301.399 39.3059 297.982 35.8893 297.982 31.6747Z" fill="#DC9036"/>
<rect x="297.982" y="0.935547" width="15.6802" height="31.3604" fill="#DC9036"/>
<rect x="299.633" y="25.9951" width="12.3553" height="12.3553" rx="6.17764" fill="#283D4D"/>
<path d="M1027.53 578.004C1027.53 582.218 1024.11 585.635 1019.89 585.635H1019.57C1015.31 585.635 1011.85 582.174 1011.85 577.906C1011.85 573.745 1015.22 570.372 1019.38 570.372H1019.89C1024.11 570.372 1027.53 573.789 1027.53 578.004Z" fill="#DC9036"/>
<rect x="1027.53" y="608.743" width="15.6802" height="31.3604" transform="rotate(-180 1027.53 608.743)" fill="#DC9036"/>
<rect x="1025.88" y="583.683" width="12.3553" height="12.3553" rx="6.17764" transform="rotate(-180 1025.88 583.683)" fill="#283D4D"/>
<path d="M981.311 577.181C981.311 581.396 977.894 584.812 973.679 584.812H973.359C969.091 584.812 965.63 581.352 965.63 577.084C965.63 572.923 969.003 569.55 973.164 569.55H973.679C977.894 569.55 981.311 572.967 981.311 577.181Z" fill="#DC9036"/>
<rect x="981.311" y="607.92" width="15.6802" height="31.3604" transform="rotate(-180 981.311 607.92)" fill="#DC9036"/>
<rect x="979.66" y="582.861" width="12.3553" height="12.3553" rx="6.17764" transform="rotate(-180 979.66 582.861)" fill="#283D4D"/>
<path d="M935.094 577.181C935.094 581.396 931.677 584.812 927.463 584.812H927.142C922.874 584.812 919.414 581.352 919.414 577.084C919.414 572.923 922.786 569.55 926.947 569.55H927.463C931.677 569.55 935.094 572.967 935.094 577.181Z" fill="#DC9036"/>
<rect x="935.094" y="607.92" width="15.6802" height="31.3604" transform="rotate(-180 935.094 607.92)" fill="#DC9036"/>
<rect x="933.443" y="582.861" width="12.3553" height="12.3553" rx="6.17764" transform="rotate(-180 933.443 582.861)" fill="#283D4D"/>
<path d="M888.879 577.181C888.879 581.396 885.462 584.812 881.248 584.812H880.928C876.659 584.812 873.199 581.352 873.199 577.084C873.199 572.923 876.572 569.55 880.732 569.55H881.248C885.462 569.55 888.879 572.967 888.879 577.181Z" fill="#DC9036"/>
<rect x="888.879" y="607.92" width="15.6802" height="31.3604" transform="rotate(-180 888.879 607.92)" fill="#DC9036"/>
<rect x="887.229" y="582.861" width="12.3553" height="12.3553" rx="6.17764" transform="rotate(-180 887.229 582.861)" fill="#283D4D"/>
</g>
<defs>
<filter id="filter0_i_636_1619" x="0.0585938" y="0.111328" width="1273.4" height="608.631" filterUnits="userSpaceOnUse" color-interpolation-filters="sRGB">
<feFlood flood-opacity="0" result="BackgroundImageFix"/>
<feBlend mode="normal" in="SourceGraphic" in2="BackgroundImageFix" result="shape"/>
<feColorMatrix in="SourceAlpha" type="matrix" values="0 0 0 0 0 0 0 0 0 0 0 0 0 0 0 0 0 0 127 0" result="hardAlpha"/>
<feOffset/>
<feGaussianBlur stdDeviation="4.12637"/>
<feComposite in2="hardAlpha" operator="arithmetic" k2="-1" k3="1"/>
<feColorMatrix type="matrix" values="0 0 0 0 0 0 0 0 0 0.9 0 0 0 0 1 0 0 0 0.3 0"/>
<feBlend mode="normal" in2="shape" result="effect1_innerShadow_636_1619"/>
</filter>
<filter id="filter1_d_636_1619" x="54.5265" y="57.0542" width="1164.46" height="510.019" filterUnits="userSpaceOnUse" color-interpolation-filters="sRGB">
<feFlood flood-opacity="0" result="BackgroundImageFix"/>
<feColorMatrix in="SourceAlpha" type="matrix" values="0 0 0 0 0 0 0 0 0 0 0 0 0 0 0 0 0 0 127 0" result="hardAlpha"/>
<feOffset dy="6.60219"/>
<feGaussianBlur stdDeviation="1.65055"/>
<feComposite in2="hardAlpha" operator="out"/>
<feColorMatrix type="matrix" values="0 0 0 0 0 0 0 0 0 0 0 0 0 0 0 0 0 0 0.25 0"/>
<feBlend mode="normal" in2="BackgroundImageFix" result="effect1_dropShadow_636_1619"/>
<feBlend mode="normal" in="SourceGraphic" in2="effect1_dropShadow_636_1619" result="shape"/>
</filter>
<filter id="filter2_d_636_1619" x="51.2255" y="47.9755" width="1171.06" height="515.796" filterUnits="userSpaceOnUse" color-interpolation-filters="sRGB">
<feFlood flood-opacity="0" result="BackgroundImageFix"/>
<feColorMatrix in="SourceAlpha" type="matrix" values="0 0 0 0 0 0 0 0 0 0 0 0 0 0 0 0 0 0 127 0" result="hardAlpha"/>
<feOffset/>
<feGaussianBlur stdDeviation="8.25274"/>
<feComposite in2="hardAlpha" operator="out"/>
<feColorMatrix type="matrix" values="0 0 0 0 0.0588235 0 0 0 0 0.639216 0 0 0 0 0.694118 0 0 0 1 0"/>
<feBlend mode="normal" in2="BackgroundImageFix" result="effect1_dropShadow_636_1619"/>
<feBlend mode="normal" in="SourceGraphic" in2="effect1_dropShadow_636_1619" result="shape"/>
</filter>
</defs>
</svg>
