<svg width="1440" height="4289" viewBox="0 0 1440 4289" fill="none" xmlns="http://www.w3.org/2000/svg">
<g clip-path="url(#clip0_1122_2072)">
<g filter="url(#filter0_d_1122_2072)">
<path d="M1273 2690L1319.07 2738H1387.21L1460.15 2833" stroke="#0FA3B1" stroke-width="10"/>
<path d="M1156.3 232.981C1156.3 238.494 1160.77 242.963 1166.28 242.963C1171.79 242.963 1176.26 238.494 1176.26 232.981C1176.26 227.469 1171.79 223 1166.28 223C1160.77 223 1156.3 227.469 1156.3 232.981Z" stroke="#0FA3B1" stroke-width="10"/>
<path d="M1162.44 672.981C1162.44 678.494 1166.91 682.963 1172.42 682.963C1177.94 682.963 1182.4 678.494 1182.4 672.981C1182.4 667.469 1177.94 663 1172.42 663C1166.91 663 1162.44 667.469 1162.44 672.981Z" stroke="#0FA3B1" stroke-width="10"/>
<path d="M692 1058.98C692 1064.49 696.469 1068.96 701.981 1068.96C707.494 1068.96 711.963 1064.49 711.963 1058.98C711.963 1053.47 707.494 1049 701.981 1049C696.469 1049 692 1053.47 692 1058.98Z" stroke="#0FA3B1" stroke-width="10"/>
<path d="M980.475 384V313.179C980.475 312.739 980.62 312.311 980.888 311.961L1038.61 236.782C1038.99 236.289 1039.58 236 1040.2 236H1156.68" stroke="#0FA3B1" stroke-width="10"/>
<path d="M815 306V454.479C815 454.896 815.13 455.302 815.372 455.641L972.096 675.162C972.471 675.688 973.078 676 973.724 676H1162" stroke="#0FA3B1" stroke-width="10"/>
<path d="M793 306V480.052C793 480.452 793.12 480.844 793.345 481.175L952.655 715.755C952.88 716.086 953 716.478 953 716.878V961" stroke="#0FA3B1" stroke-width="10"/>
<path d="M611 306V364.312C611 364.761 610.849 365.197 610.571 365.55L503 502" stroke="#0FA3B1" stroke-width="10"/>
<path d="M634 306V363.435C634 363.83 633.883 364.216 633.664 364.545L522 532" stroke="#0FA3B1" stroke-width="10"/>
<path d="M589 306V343.55C589 344.654 588.105 345.55 587 345.55H309.228C308.608 345.55 308.022 345.837 307.644 346.329L185.93 504.221C185.551 504.712 184.966 505 184.346 505H-66.8546C-67.472 505 -68.0549 504.715 -68.4338 504.227L-140 412.133" stroke="#0FA3B1" stroke-width="10"/>
<path d="M657 191L657 79" stroke="#0FA3B1" stroke-width="10"/>
<path d="M702 191L702 79" stroke="#0FA3B1" stroke-width="10"/>
<path d="M725 191L725 79" stroke="#0FA3B1" stroke-width="10"/>
<path d="M793 191L793 79" stroke="#0FA3B1" stroke-width="10"/>
<path d="M815 191L815 79" stroke="#0FA3B1" stroke-width="10"/>
<path d="M861 190.999L861 155.999C861 154.895 861.895 153.999 863 153.999L979.449 153.999C980.046 153.999 980.612 153.732 980.992 153.271L1001.41 128.499L1067.92 41.875" stroke="#0FA3B1" stroke-width="10"/>
<path d="M589 191V145C589 143.895 588.105 143 587 143H454.069H320.092C319.488 143 318.917 142.727 318.537 142.258L271 83.5L319.138 24" stroke="#0FA3B1" stroke-width="10"/>
<path d="M611 191V81" stroke="#0FA3B1" stroke-width="10"/>
<path d="M1292.2 1120H1381.84L1417.45 1073.62H1570.91" stroke="#0FA3B1" stroke-width="10"/>
<path d="M1114 1167L1114 1213L1170 1288H1455.5" stroke="#0FA3B1" stroke-width="10"/>
<path d="M152.98 1354V1271" stroke="#0FA3B1" stroke-width="10"/>
<path d="M195.203 1068L57 1068" stroke="#0FA3B1" stroke-width="10"/>
<path d="M644 1356V1303.5L627.453 1281H554" stroke="#0FA3B1" stroke-width="10"/>
<path d="M690.316 1358V1238.5L671.308 1212H541.885H508.316" stroke="#0FA3B1" stroke-width="10"/>
<path d="M644.18 633.981C644.18 639.494 648.648 643.963 654.161 643.963C659.674 643.963 664.142 639.494 664.142 633.981C664.142 628.469 659.674 624 654.161 624C648.648 624 644.18 628.469 644.18 633.981Z" stroke="#0FA3B1" stroke-width="10"/>
<path d="M654 644V778C654 779.105 653.105 780 652 780H629" stroke="#0FA3B1" stroke-width="10"/>
<path d="M143 1260.98C143 1266.49 147.469 1270.96 152.981 1270.96C158.494 1270.96 162.963 1266.49 162.963 1260.98C162.963 1255.47 158.494 1251 152.981 1251C147.469 1251 143 1255.47 143 1260.98Z" stroke="#0FA3B1" stroke-width="10"/>
<path d="M557 1911.98C557 1917.49 561.469 1921.96 566.981 1921.96C572.494 1921.96 576.963 1917.49 576.963 1911.98C576.963 1906.47 572.494 1902 566.981 1902C561.469 1902 557 1906.47 557 1911.98Z" stroke="#0FA3B1" stroke-width="10"/>
<path d="M824 1949.98C824 1955.49 828.469 1959.96 833.981 1959.96C839.494 1959.96 843.963 1955.49 843.963 1949.98C843.963 1944.47 839.494 1940 833.981 1940C828.469 1940 824 1944.47 824 1949.98Z" stroke="#0FA3B1" stroke-width="10"/>
<path d="M1045 1970.98C1045 1976.49 1049.47 1980.96 1054.98 1980.96C1060.49 1980.96 1064.96 1976.49 1064.96 1970.98C1064.96 1965.47 1060.49 1961 1054.98 1961C1049.47 1961 1045 1965.47 1045 1970.98Z" stroke="#0FA3B1" stroke-width="10"/>
<path d="M839 2025.98C839 2031.49 843.469 2035.96 848.981 2035.96C854.494 2035.96 858.963 2031.49 858.963 2025.98C858.963 2020.47 854.494 2016 848.981 2016C843.469 2016 839 2020.47 839 2025.98Z" stroke="#0FA3B1" stroke-width="10"/>
<path d="M153 2789.98C153 2795.49 157.469 2799.96 162.981 2799.96C168.494 2799.96 172.963 2795.49 172.963 2789.98C172.963 2784.47 168.494 2780 162.981 2780C157.469 2780 153 2784.47 153 2789.98Z" stroke="#0FA3B1" stroke-width="10"/>
<path d="M236.014 2841.98C236.014 2847.49 240.482 2851.96 245.995 2851.96C251.508 2851.96 255.976 2847.49 255.976 2841.98C255.976 2836.47 251.508 2832 245.995 2832C240.482 2832 236.014 2836.47 236.014 2841.98Z" stroke="#0FA3B1" stroke-width="10"/>
<path d="M554 2755.98C554 2761.49 558.469 2765.96 563.981 2765.96C569.494 2765.96 573.963 2761.49 573.963 2755.98C573.963 2750.47 569.494 2746 563.981 2746C558.469 2746 554 2750.47 554 2755.98Z" stroke="#0FA3B1" stroke-width="10"/>
<path d="M720 2832.98C720 2838.49 724.469 2842.96 729.981 2842.96C735.494 2842.96 739.963 2838.49 739.963 2832.98C739.963 2827.47 735.494 2823 729.981 2823C724.469 2823 720 2827.47 720 2832.98Z" stroke="#0FA3B1" stroke-width="10"/>
<path d="M544 2881.98C544 2887.49 548.469 2891.96 553.981 2891.96C559.494 2891.96 563.963 2887.49 563.963 2881.98C563.963 2876.47 559.494 2872 553.981 2872C548.469 2872 544 2876.47 544 2881.98Z" stroke="#0FA3B1" stroke-width="10"/>
<path d="M763 2832.98C763 2838.49 767.469 2842.96 772.981 2842.96C778.494 2842.96 782.963 2838.49 782.963 2832.98C782.963 2827.47 778.494 2823 772.981 2823C767.469 2823 763 2827.47 763 2832.98Z" stroke="#0FA3B1" stroke-width="10"/>
<path d="M831 2937.98C831 2943.49 835.469 2947.96 840.981 2947.96C846.494 2947.96 850.963 2943.49 850.963 2937.98C850.963 2932.47 846.494 2928 840.981 2928C835.469 2928 831 2932.47 831 2937.98Z" stroke="#0FA3B1" stroke-width="10"/>
<path d="M1298 2858.98C1298 2864.49 1302.47 2868.96 1307.98 2868.96C1313.49 2868.96 1317.96 2864.49 1317.96 2858.98C1317.96 2853.47 1313.49 2849 1307.98 2849C1302.47 2849 1298 2853.47 1298 2858.98Z" stroke="#0FA3B1" stroke-width="10"/>
<path d="M1158.06 2782.98C1158.06 2788.49 1162.53 2792.96 1168.04 2792.96C1173.55 2792.96 1178.02 2788.49 1178.02 2782.98C1178.02 2777.47 1173.55 2773 1168.04 2773C1162.53 2773 1158.06 2777.47 1158.06 2782.98Z" stroke="#0FA3B1" stroke-width="10"/>
<path d="M1167.32 2855.98C1167.32 2861.49 1171.79 2865.96 1177.3 2865.96C1182.81 2865.96 1187.28 2861.49 1187.28 2855.98C1187.28 2850.47 1182.81 2846 1177.3 2846C1171.79 2846 1167.32 2850.47 1167.32 2855.98Z" stroke="#0FA3B1" stroke-width="10"/>
<path d="M1305 3567.13C1305 3573.28 1309.98 3578.27 1316.13 3578.27C1322.28 3578.27 1327.27 3573.28 1327.27 3567.13C1327.27 3560.98 1322.28 3556 1316.13 3556C1309.98 3556 1305 3560.98 1305 3567.13Z" stroke="#0FA3B1" stroke-width="10"/>
<path d="M1305 3665.13C1305 3671.28 1309.98 3676.27 1316.13 3676.27C1322.28 3676.27 1327.27 3671.28 1327.27 3665.13C1327.27 3658.98 1322.28 3654 1316.13 3654C1309.98 3654 1305 3658.98 1305 3665.13Z" stroke="#0FA3B1" stroke-width="10"/>
<path d="M1179.7 3612.98C1179.7 3618.49 1184.17 3622.96 1189.68 3622.96C1195.19 3622.96 1199.66 3618.49 1199.66 3612.98C1199.66 3607.47 1195.19 3603 1189.68 3603C1184.17 3603 1179.7 3607.47 1179.7 3612.98Z" stroke="#0FA3B1" stroke-width="10"/>
<path d="M1056.85 3536.98C1056.85 3542.49 1061.32 3546.96 1066.83 3546.96C1072.35 3546.96 1076.81 3542.49 1076.81 3536.98C1076.81 3531.47 1072.35 3527 1066.83 3527C1061.32 3527 1056.85 3531.47 1056.85 3536.98Z" stroke="#0FA3B1" stroke-width="10"/>
<path d="M890.207 3546.98C890.207 3552.49 894.676 3556.96 900.188 3556.96C905.701 3556.96 910.17 3552.49 910.17 3546.98C910.17 3541.47 905.701 3537 900.188 3537C894.676 3537 890.207 3541.47 890.207 3546.98Z" stroke="#0FA3B1" stroke-width="10"/>
<path d="M451 3619.98C451 3625.49 455.469 3629.96 460.981 3629.96C466.494 3629.96 470.963 3625.49 470.963 3619.98C470.963 3614.47 466.494 3610 460.981 3610C455.469 3610 451 3614.47 451 3619.98Z" stroke="#0FA3B1" stroke-width="10"/>
<path d="M187.758 3602.98C187.758 3608.49 192.227 3612.96 197.739 3612.96C203.252 3612.96 207.72 3608.49 207.72 3602.98C207.72 3597.47 203.252 3593 197.739 3593C192.227 3593 187.758 3597.47 187.758 3602.98Z" stroke="#0FA3B1" stroke-width="10"/>
<path d="M58 3533.98C58 3539.49 62.4688 3543.96 67.9813 3543.96C73.4939 3543.96 77.9627 3539.49 77.9627 3533.98C77.9627 3528.47 73.4939 3524 67.9813 3524C62.4688 3524 58 3528.47 58 3533.98Z" stroke="#0FA3B1" stroke-width="10"/>
<path d="M1053.78 3730.98C1053.78 3736.49 1058.25 3740.96 1063.76 3740.96C1069.28 3740.96 1073.74 3736.49 1073.74 3730.98C1073.74 3725.47 1069.28 3721 1063.76 3721C1058.25 3721 1053.78 3725.47 1053.78 3730.98Z" stroke="#0FA3B1" stroke-width="10"/>
<path d="M896.959 3721.98C896.959 3727.49 901.428 3731.96 906.94 3731.96C912.453 3731.96 916.922 3727.49 916.922 3721.98C916.922 3716.47 912.453 3712 906.94 3712C901.428 3712 896.959 3716.47 896.959 3721.98Z" stroke="#0FA3B1" stroke-width="10"/>
<path d="M559 1954.98C559 1960.49 563.469 1964.96 568.981 1964.96C574.494 1964.96 578.963 1960.49 578.963 1954.98C578.963 1949.47 574.494 1945 568.981 1945C563.469 1945 559 1949.47 559 1954.98Z" stroke="#0FA3B1" stroke-width="10"/>
<path d="M565 1996.98C565 2002.49 569.469 2006.96 574.981 2006.96C580.494 2006.96 584.963 2002.49 584.963 1996.98C584.963 1991.47 580.494 1987 574.981 1987C569.469 1987 565 1991.47 565 1996.98Z" stroke="#0FA3B1" stroke-width="10"/>
<path d="M50.9813 1077.96C56.4939 1077.96 60.9627 1073.49 60.9627 1067.98C60.9627 1062.47 56.4939 1058 50.9813 1058C45.4688 1058 41 1062.47 41 1067.98C41 1073.49 45.4688 1077.96 50.9813 1077.96Z" stroke="#0FA3B1" stroke-width="10"/>
<path d="M541 1291C546.523 1291 551 1286.52 551 1281C551 1275.48 546.523 1271 541 1271C535.477 1271 531 1275.48 531 1281C531 1286.52 535.477 1291 541 1291Z" stroke="#0FA3B1" stroke-width="10"/>
<path d="M495.5 1222C501.299 1222 506 1217.3 506 1211.5C506 1205.7 501.299 1201 495.5 1201C489.701 1201 485 1205.7 485 1211.5C485 1217.3 489.701 1222 495.5 1222Z" stroke="#0FA3B1" stroke-width="10"/>
<path d="M91.0156 4081H40.6482L21.0916 4058H-27.9844" stroke="#0FA3B1" stroke-width="10"/>
<path d="M90.0156 3987H66.0612L61.3277 3972H-24.9844" stroke="#0FA3B1" stroke-width="10"/>
<path d="M1348 4127H1380.7V4039L1470 4039" stroke="#0FA3B1" stroke-width="10"/>
<path d="M91.0156 4034H-38.9844" stroke="#0FA3B1" stroke-width="10"/>
<path d="M1348 4174H1474" stroke="#0FA3B1" stroke-width="10"/>
<path d="M1348 4221H1388.03V4246H1477" stroke="#0FA3B1" stroke-width="10"/>
<path d="M1348 4267H1415.51V4289H1476" stroke="#0FA3B1" stroke-width="10"/>
<path d="M653.873 3451L653.873 3541.38L627 3563.93V3725.58L647.252 3748.02V3833" stroke="#0FA3B1" stroke-width="10"/>
<path d="M748.783 3454V3524.3L768 3542.97V3585.81L742 3611.07V3826" stroke="#0FA3B1" stroke-width="10"/>
<path d="M1060 2685V2898.82L1086 2921.36V2977" stroke="#0FA3B1" stroke-width="10"/>
<path d="M1014 2697V2796.93L1040 2819.37V2988" stroke="#0FA3B1" stroke-width="10"/>
<path d="M1092 1167V1242.39L1082.52 1255.9H793L782 1269.5L782 1358" stroke="#0FA3B1" stroke-width="10"/>
<path d="M1051 1167V1205.62L1042.75 1216.82H743.834L736 1225.15V1356" stroke="#0FA3B1" stroke-width="10"/>
<path d="M842.619 1953C846.305 1953 946.527 1953 996.178 1953L1054.53 1887.27V1825" stroke="#0FA3B1" stroke-width="10"/>
<path d="M254 1788L254 2116" stroke="#0FA3B1" stroke-width="10"/>
<path d="M556.957 1912H372.238L300.957 1984.17V2106" stroke="#0FA3B1" stroke-width="10"/>
<path d="M558.957 1955H386.778L346.957 1994.74V2106" stroke="#0FA3B1" stroke-width="10"/>
<path d="M562.957 1997H429.98L393.957 2033.7V2106" stroke="#0FA3B1" stroke-width="10"/>
<path d="M1193 1821V1939.4L1304.56 2067H1663" stroke="#0FA3B1" stroke-width="10"/>
<path d="M1147 1821V2026H859" stroke="#0FA3B1" stroke-width="10"/>
<path d="M1100 1821L1100 1920.12L1061 1965" stroke="#0FA3B1" stroke-width="10"/>
<path d="M156 2790L-10 2790" stroke="#0FA3B1" stroke-width="10"/>
<path d="M239.468 2845C237.011 2844.6 151.939 2844.84 137.735 2845L100.305 2893.75H-45" stroke="#0FA3B1" stroke-width="10"/>
<path d="M567 2882H634.535L712.814 2938H831" stroke="#0FA3B1" stroke-width="10"/>
<path d="M569.869 2761L584.927 2781H636.5L666.65 2833C689.437 2833 702.213 2833 725 2833" stroke="#0FA3B1" stroke-width="10"/>
<path d="M1318 2859H1460" stroke="#0FA3B1" stroke-width="10"/>
<path d="M1330 3569H1461" stroke="#0FA3B1" stroke-width="10"/>
<path d="M1330 3667H1461" stroke="#0FA3B1" stroke-width="10"/>
<path d="M834 3833V3725H896.959" stroke="#0FA3B1" stroke-width="10"/>
<path d="M602.256 3826V3756.07L498.673 3623H470.963" stroke="#0FA3B1" stroke-width="10"/>
<path d="M74.8906 3546L119.901 3606H189.292" stroke="#0FA3B1" stroke-width="10"/>
<path d="M702 306L702 678.5L702 864.75L702 1051" stroke="#0FA3B1" stroke-width="10"/>
<path d="M702 766L672.466 818.974C672.112 819.607 671.444 820 670.719 820H628" stroke="#0FA3B1" stroke-width="10"/>
<path d="M748 306V842.6V941.863C748 942.329 748.163 942.78 748.46 943.139L786.687 989.276C787.067 989.735 787.632 990 788.227 990H834" stroke="#0FA3B1" stroke-width="10"/>
<path d="M771 306L771 659.692C771 659.932 771.043 660.171 771.128 660.396L793.309 719.392C793.394 719.617 793.437 719.855 793.437 720.096V926C793.437 927.105 794.333 928 795.437 928H835.5" stroke="#0FA3B1" stroke-width="10"/>
<path d="M679 306V397.487C679 397.823 678.915 398.155 678.753 398.45L654.247 443.05C654.085 443.345 654 443.677 654 444.013V626" stroke="#0FA3B1" stroke-width="10"/>
<path d="M100 533H65.1952C64.7449 533 64.3079 533.152 63.9547 533.431L43.5453 549.569C43.1921 549.848 42.7551 550 42.3048 550H0" stroke="#0FA3B1" stroke-width="10"/>
<path d="M101.037 573.957L-3.79688 573.957" stroke="#0FA3B1" stroke-width="10"/>
<path d="M101 593H34.573C33.4684 593 32.573 593.895 32.573 595V615C32.573 616.105 31.6776 617 30.573 617H-10" stroke="#0FA3B1" stroke-width="10"/>
<path d="M972 2679V2739.29L932.232 2788.81H809.469L778 2828" stroke="#0FA3B1" stroke-width="10"/>
<path d="M851 2938H967.827L999 2954.34V2969.67V2985" stroke="#0FA3B1" stroke-width="10"/>
<path d="M1107 2701V2785.5H1161.51" stroke="#0FA3B1" stroke-width="10"/>
<path d="M1170.39 2866L1132 2907.22V2981" stroke="#0FA3B1" stroke-width="10"/>
<path d="M1182 3616H1153.49L1102.61 3539H1074.91M745 3672.5L788.148 3706.5V3768V3828" stroke="#0FA3B1" stroke-width="10"/>
<path d="M795 3454V3499.96L828.204 3550H890.207" stroke="#0FA3B1" stroke-width="10"/>
<path d="M1137.47 3595L1102.85 3635V3735H1071.44" stroke="#0FA3B1" stroke-width="10"/>
<path d="M702.025 3456.5V3553L674 3589.12V3681L694.73 3717V3761.5V3833" stroke="#0FA3B1" stroke-width="10"/>
<path d="M-27.9844 4253H44.0255L59.6612 4219H91.0156" stroke="#0FA3B1" stroke-width="10"/>
<path d="M-27.9844 4172L90.0156 4172" stroke="#0FA3B1" stroke-width="10"/>
<path d="M-31.9844 4125H91.0156" stroke="#0FA3B1" stroke-width="10"/>
<path d="M861 306V377.508C861 378.613 861.895 379.508 863 379.508H1054.04C1054.71 379.508 1055.34 379.844 1055.71 380.402L1149.74 522.106C1150.11 522.664 1150.74 523 1151.41 523L1462 523" stroke="#0FA3B1" stroke-width="10"/>
</g>
</g>
<defs>
<filter id="filter0_d_1122_2072" x="-193.947" y="-50" width="1906.95" height="5294" filterUnits="userSpaceOnUse" color-interpolation-filters="sRGB">
<feFlood flood-opacity="0" result="BackgroundImageFix"/>
<feColorMatrix in="SourceAlpha" type="matrix" values="0 0 0 0 0 0 0 0 0 0 0 0 0 0 0 0 0 0 127 0" result="hardAlpha"/>
<feOffset/>
<feGaussianBlur stdDeviation="25"/>
<feComposite in2="hardAlpha" operator="out"/>
<feColorMatrix type="matrix" values="0 0 0 0 0 0 0 0 0 0.9 0 0 0 0 1 0 0 0 0.7 0"/>
<feBlend mode="normal" in2="BackgroundImageFix" result="effect1_dropShadow_1122_2072"/>
<feBlend mode="normal" in="SourceGraphic" in2="effect1_dropShadow_1122_2072" result="shape"/>
</filter>
<clipPath id="clip0_1122_2072">
<rect width="1440" height="4289" fill="white"/>
</clipPath>
</defs>
</svg>
