<svg width="1323" height="490" viewBox="0 0 1323 490" fill="none" xmlns="http://www.w3.org/2000/svg">
<g filter="url(#filter0_i_636_1524)">
<rect y="0.984375" width="1322.09" height="487.737" rx="41.2637" fill="#2F3234"/>
<g filter="url(#filter1_d_636_1524)">
<rect x="60.2451" y="43.8984" width="1201.6" height="394.481" rx="6.60219" fill="#0C0C0C"/>
</g>
<g filter="url(#filter2_d_636_1524)">
<rect x="70.1484" y="52.9756" width="1181.79" height="377.15" fill="#006771"/>
</g>
<path d="M1141.35 458.391C1141.35 462.605 1137.94 466.022 1133.72 466.022H1133.4C1129.13 466.022 1125.67 462.562 1125.67 458.293V458.293V458.293C1125.67 454.132 1129.05 450.76 1133.21 450.76H1133.72C1137.94 450.76 1141.35 454.176 1141.35 458.391V458.391Z" fill="#DC9036"/>
<rect x="1141.35" y="489.13" width="15.6802" height="31.3604" transform="rotate(-180 1141.35 489.13)" fill="#DC9036"/>
<rect x="1139.7" y="464.07" width="12.3553" height="12.3553" rx="6.17764" transform="rotate(-180 1139.7 464.07)" fill="#E4B67F"/>
<path d="M1095.14 457.565C1095.14 461.779 1091.72 465.196 1087.51 465.196H1087.19C1082.92 465.196 1079.46 461.735 1079.46 457.467V457.467V457.467C1079.46 453.306 1082.83 449.933 1086.99 449.933H1087.51C1091.72 449.933 1095.14 453.35 1095.14 457.565V457.565Z" fill="#DC9036"/>
<rect x="1095.14" y="488.304" width="15.6802" height="31.3604" transform="rotate(-180 1095.14 488.304)" fill="#DC9036"/>
<rect x="1093.49" y="463.244" width="12.3553" height="12.3553" rx="6.17764" transform="rotate(-180 1093.49 463.244)" fill="#E4B67F"/>
<path d="M1048.92 457.565C1048.92 461.779 1045.51 465.196 1041.29 465.196H1040.97C1036.7 465.196 1033.24 461.735 1033.24 457.467V457.467V457.467C1033.24 453.306 1036.62 449.933 1040.78 449.933H1041.29C1045.51 449.933 1048.92 453.35 1048.92 457.565V457.565Z" fill="#DC9036"/>
<rect x="1048.92" y="488.304" width="15.6802" height="31.3604" transform="rotate(-180 1048.92 488.304)" fill="#DC9036"/>
<rect x="1047.27" y="463.244" width="12.3553" height="12.3553" rx="6.17764" transform="rotate(-180 1047.27 463.244)" fill="#E4B67F"/>
<path d="M1002.71 457.565C1002.71 461.779 999.291 465.196 995.077 465.196H994.757C990.488 465.196 987.028 461.735 987.028 457.467V457.467V457.467C987.028 453.306 990.401 449.933 994.561 449.933H995.077C999.291 449.933 1002.71 453.35 1002.71 457.565V457.565Z" fill="#DC9036"/>
<rect x="1002.71" y="488.304" width="15.6802" height="31.3604" transform="rotate(-180 1002.71 488.304)" fill="#DC9036"/>
<rect x="1001.06" y="463.244" width="12.3553" height="12.3553" rx="6.17764" transform="rotate(-180 1001.06 463.244)" fill="#E4B67F"/>
<path d="M576.865 31.7235C576.865 27.5089 580.282 24.0923 584.496 24.0923H584.817C589.085 24.0923 592.545 27.5526 592.545 31.8212V31.8212V31.8212C592.545 35.9818 589.173 39.3547 585.012 39.3547H584.496C580.282 39.3547 576.865 35.9381 576.865 31.7235V31.7235Z" fill="#DC9036"/>
<rect x="576.865" y="0.984375" width="15.6802" height="31.3604" fill="#DC9036"/>
<rect x="578.516" y="26.0439" width="12.3553" height="12.3553" rx="6.17764" fill="#E4B67F"/>
<path d="M623.081 32.5502C623.081 28.3356 626.498 24.9189 630.712 24.9189H631.032C635.301 24.9189 638.761 28.3793 638.761 32.6478V32.6478V32.6478C638.761 36.8085 635.388 40.1814 631.228 40.1814H630.712C626.498 40.1814 623.081 36.7648 623.081 32.5502V32.5502Z" fill="#DC9036"/>
<rect x="623.081" y="1.81104" width="15.6802" height="31.3604" fill="#DC9036"/>
<rect x="624.731" y="26.8706" width="12.3553" height="12.3553" rx="6.17764" fill="#E4B67F"/>
<path d="M669.296 32.5502C669.296 28.3356 672.713 24.9189 676.927 24.9189H677.247C681.516 24.9189 684.976 28.3793 684.976 32.6478V32.6478V32.6478C684.976 36.8085 681.603 40.1814 677.443 40.1814H676.927C672.713 40.1814 669.296 36.7648 669.296 32.5502V32.5502Z" fill="#DC9036"/>
<rect x="669.296" y="1.81104" width="15.6802" height="31.3604" fill="#DC9036"/>
<rect x="670.946" y="26.8706" width="12.3553" height="12.3553" rx="6.17764" fill="#E4B67F"/>
<path d="M715.511 32.5502C715.511 28.3356 718.927 24.9189 723.142 24.9189H723.462C727.731 24.9189 731.191 28.3793 731.191 32.6478V32.6478V32.6478C731.191 36.8085 727.818 40.1814 723.657 40.1814H723.142C718.927 40.1814 715.511 36.7648 715.511 32.5502V32.5502Z" fill="#DC9036"/>
<rect x="715.511" y="1.81104" width="15.6802" height="31.3604" fill="#DC9036"/>
<rect x="717.161" y="26.8706" width="12.3553" height="12.3553" rx="6.17764" fill="#E4B67F"/>
<rect x="11.5537" y="433.43" width="43.2866" height="43.2866" rx="21.6433" fill="black"/>
<rect x="1268.45" y="433.43" width="43.2866" height="43.2866" rx="21.6433" fill="black"/>
<rect x="11.5537" y="10.0635" width="43.2866" height="43.2866" rx="21.6433" fill="black"/>
<rect x="1268.45" y="10.0635" width="43.2866" height="43.2866" rx="21.6433" fill="black"/>
<rect x="16.1763" y="438.52" width="33.5122" height="33.5122" rx="16.7561" fill="#111110"/>
<rect x="1273.07" y="438.52" width="33.5122" height="33.5122" rx="16.7561" fill="#111110"/>
<rect x="16.1763" y="15.1553" width="33.5122" height="33.5122" rx="16.7561" fill="#111110"/>
<rect x="1273.07" y="15.1553" width="33.5122" height="33.5122" rx="16.7561" fill="#111110"/>
</g>
<defs>
<filter id="filter0_i_636_1524" x="0" y="0.984375" width="1322.09" height="488.146" filterUnits="userSpaceOnUse" color-interpolation-filters="sRGB">
<feFlood flood-opacity="0" result="BackgroundImageFix"/>
<feBlend mode="normal" in="SourceGraphic" in2="BackgroundImageFix" result="shape"/>
<feColorMatrix in="SourceAlpha" type="matrix" values="0 0 0 0 0 0 0 0 0 0 0 0 0 0 0 0 0 0 127 0" result="hardAlpha"/>
<feOffset/>
<feGaussianBlur stdDeviation="4.12637"/>
<feComposite in2="hardAlpha" operator="arithmetic" k2="-1" k3="1"/>
<feColorMatrix type="matrix" values="0 0 0 0 0 0 0 0 0 0.9 0 0 0 0 1 0 0 0 0.3 0"/>
<feBlend mode="normal" in2="shape" result="effect1_innerShadow_636_1524"/>
</filter>
<filter id="filter1_d_636_1524" x="56.944" y="43.8984" width="1208.2" height="404.384" filterUnits="userSpaceOnUse" color-interpolation-filters="sRGB">
<feFlood flood-opacity="0" result="BackgroundImageFix"/>
<feColorMatrix in="SourceAlpha" type="matrix" values="0 0 0 0 0 0 0 0 0 0 0 0 0 0 0 0 0 0 127 0" result="hardAlpha"/>
<feOffset dy="6.60219"/>
<feGaussianBlur stdDeviation="1.65055"/>
<feComposite in2="hardAlpha" operator="out"/>
<feColorMatrix type="matrix" values="0 0 0 0 0 0 0 0 0 0 0 0 0 0 0 0 0 0 0.25 0"/>
<feBlend mode="normal" in2="BackgroundImageFix" result="effect1_dropShadow_636_1524"/>
<feBlend mode="normal" in="SourceGraphic" in2="effect1_dropShadow_636_1524" result="shape"/>
</filter>
<filter id="filter2_d_636_1524" x="53.643" y="36.4701" width="1214.8" height="410.161" filterUnits="userSpaceOnUse" color-interpolation-filters="sRGB">
<feFlood flood-opacity="0" result="BackgroundImageFix"/>
<feColorMatrix in="SourceAlpha" type="matrix" values="0 0 0 0 0 0 0 0 0 0 0 0 0 0 0 0 0 0 127 0" result="hardAlpha"/>
<feOffset/>
<feGaussianBlur stdDeviation="8.25274"/>
<feComposite in2="hardAlpha" operator="out"/>
<feColorMatrix type="matrix" values="0 0 0 0 0.0588235 0 0 0 0 0.639216 0 0 0 0 0.694118 0 0 0 1 0"/>
<feBlend mode="normal" in2="BackgroundImageFix" result="effect1_dropShadow_636_1524"/>
<feBlend mode="normal" in="SourceGraphic" in2="effect1_dropShadow_636_1524" result="shape"/>
</filter>
</defs>
</svg>
